HIERARCHY
ROOT Hips
{
	OFFSET -0.001795 -0.223333 0.028219
	CHANNELS 6 Xposition Yposition Zposition Zrotation Yrotation Xrotation 
	JOINT LeftUpLeg
	{
		OFFSET 0.069520 -0.091406 -0.006815
		CHANNELS 3 Zrotation Yrotation Xrotation
		JOINT LeftLeg
		{
			OFFSET 0.034277 -0.375199 -0.004496
			CHANNELS 3 Zrotation Yrotation Xrotation
			JOINT LeftFoot
			{
				OFFSET -0.013596 -0.397961 -0.043693
				CHANNELS 3 Zrotation Yrotation Xrotation
				JOINT LeftToe
				{
					OFFSET 0.026358 -0.055791 0.119288
					CHANNELS 3 Zrotation Yrotation Xrotation
					End Site
					{
						OFFSET 0.000000 0.000000 0.000000
					}
				}
			}
		}
	}
	JOINT RightUpLeg
	{
		OFFSET -0.067670 -0.090522 -0.004320
		CHANNELS 3 Zrotation Yrotation Xrotation
		JOINT RightLeg
		{
			OFFSET -0.038290 -0.382569 -0.008850
			CHANNELS 3 Zrotation Yrotation Xrotation
			JOINT RightFoot
			{
				OFFSET 0.015774 -0.398415 -0.042312
				CHANNELS 3 Zrotation Yrotation Xrotation
				JOINT RightToe
				{
					OFFSET -0.025372 -0.048144 0.123348
					CHANNELS 3 Zrotation Yrotation Xrotation
					End Site
					{
						OFFSET 0.000000 0.000000 0.000000
					}
				}
			}
		}
	}
	JOINT Spine
	{
		OFFSET -0.002533 0.108963 -0.026696
		CHANNELS 3 Zrotation Yrotation Xrotation
		JOINT Spine1
		{
			OFFSET 0.005487 0.135180 0.001092
			CHANNELS 3 Zrotation Yrotation Xrotation
			JOINT Spine2
			{
				OFFSET 0.001457 0.052922 0.025425
				CHANNELS 3 Zrotation Yrotation Xrotation
				JOINT Neck
				{
					OFFSET -0.002778 0.213870 -0.042857
					CHANNELS 3 Zrotation Yrotation Xrotation
					JOINT Head
					{
						OFFSET 0.005152 0.064970 0.051349
						CHANNELS 3 Zrotation Yrotation Xrotation
						End Site
						{
							OFFSET 0.000000 0.000000 0.000000
						}
					}
				}
				JOINT LeftShoulder
				{
					OFFSET 0.078845 0.121749 -0.034090
					CHANNELS 3 Zrotation Yrotation Xrotation
					JOINT LeftArm
					{
						OFFSET 0.090977 0.030469 -0.008868
						CHANNELS 3 Zrotation Yrotation Xrotation
						JOINT LeftForeArm
						{
							OFFSET 0.259612 -0.012772 -0.027456
							CHANNELS 3 Zrotation Yrotation Xrotation
							JOINT LeftHand
							{
								OFFSET 0.249234 0.008986 -0.001171
								CHANNELS 3 Zrotation Yrotation Xrotation
								End Site
								{
									OFFSET 0.000000 0.000000 0.000000
								}
							}
						}
					}
				}
				JOINT RightShoulder
				{
					OFFSET -0.081759 0.118833 -0.038615
					CHANNELS 3 Zrotation Yrotation Xrotation
					JOINT RightArm
					{
						OFFSET -0.096012 0.032551 -0.009143
						CHANNELS 3 Zrotation Yrotation Xrotation
						JOINT RightForeArm
						{
							OFFSET -0.253742 -0.013329 -0.021401
							CHANNELS 3 Zrotation Yrotation Xrotation
							JOINT RightHand
							{
								OFFSET -0.255298 0.007772 -0.005559
								CHANNELS 3 Zrotation Yrotation Xrotation
								End Site
								{
									OFFSET 0.000000 0.000000 0.000000
								}
							}
						}
					}
				}
			}
		}
	}
}
MOTION
Frames: 17
Frame Time: 0.050000
-0.545573 0.952052 0.731735 179.355575 55.934626 174.285587 4.398454 -2.236944 -10.755679 -26.817924 -14.795970 39.828449 37.897088 17.915567 40.020446 0.000000 0.000000 0.000000 5.342111 -1.413787 3.419417 1.191485 -3.792466 0.949978 3.898485 -5.274640 9.762295 0.000000 0.000000 0.000000 8.094883 -2.629642 10.968330 -6.169490 0.683450 -25.199004 1.775547 16.838577 31.069409 12.227261 5.246577 -28.833273 0.000000 0.000000 0.000000 -11.442516 -17.346808 -37.864733 -47.749360 30.826506 -16.064752 -27.549267 -19.314241 -0.056571 0.000000 0.000000 0.000000 25.296355 -13.792984 28.982300 41.149665 47.369062 11.660828 -2.588043 24.338402 -1.005161 0.000000 0.000000 0.000000 
-0.528845 0.952405 0.721228 178.574903 58.106114 173.821610 3.100107 -1.980028 -11.880202 -12.996241 -10.210577 28.420296 30.899567 13.624696 25.912457 0.000000 0.000000 0.000000 4.502662 -1.832902 4.832755 1.107169 -3.530236 0.878720 5.364959 -3.259060 9.483491 0.000000 0.000000 0.000000 7.750729 -2.682208 11.503595 -6.999942 0.492453 -25.669021 3.100737 17.389315 31.493493 11.604637 5.817734 -29.221037 0.000000 0.000000 0.000000 -11.503428 -17.538349 -36.159953 -48.481053 29.026992 -15.756119 -28.074906 -19.519096 0.039725 0.000000 0.000000 0.000000 23.886581 -12.703728 27.437340 43.797187 46.971547 13.756295 -3.286337 25.667088 -1.008317 0.000000 0.000000 0.000000 
-0.511875 0.952268 0.710876 178.363634 59.803534 173.509121 1.663044 -1.667136 -12.017082 -3.639578 -5.224144 17.483064 17.640911 6.879895 15.697308 0.000000 0.000000 0.000000 4.347231 -2.165137 6.303359 0.882355 -3.449016 1.384249 7.005093 -1.581267 8.489008 0.000000 0.000000 0.000000 7.494434 -2.849360 12.199148 -6.847947 0.586292 -25.856117 2.976046 18.297834 31.850302 11.975707 6.145080 -29.845061 0.000000 0.000000 0.000000 -11.499258 -17.625359 -35.098667 -48.703661 27.807129 -15.362980 -28.750510 -20.269376 0.136519 0.000000 0.000000 0.000000 23.716785 -12.390514 27.122301 45.706049 47.756621 15.058901 -4.228408 26.059754 -1.129654 0.000000 0.000000 0.000000 
-0.494084 0.949716 0.700064 177.621845 62.048634 172.828410 0.331258 -1.402005 -11.896137 -1.239013 -2.427381 7.637392 4.743694 2.083567 14.032638 0.000000 0.000000 0.000000 4.072101 -2.494397 7.570327 0.213650 -3.155427 2.045785 7.810410 -0.886610 6.755664 0.000000 0.000000 0.000000 6.739189 -2.620013 12.357953 -7.427269 0.454523 -26.428180 4.301397 19.144615 32.370205 12.773902 6.578422 -30.566073 0.000000 0.000000 0.000000 -12.272842 -18.876161 -34.887451 -48.222596 26.856917 -13.908737 -27.725767 -20.386472 0.224925 0.000000 0.000000 0.000000 24.001881 -12.197824 27.088512 45.483207 47.987343 14.687843 -2.597094 26.151112 -0.819083 0.000000 0.000000 0.000000 
-0.475787 0.946593 0.688699 177.258858 63.697815 171.807738 -1.422494 -1.124923 -11.551163 -0.598923 -1.896465 2.307846 -6.649570 -2.503184 14.741837 0.000000 0.000000 0.000000 3.669184 -2.997929 9.100258 -0.125170 -3.287326 3.338918 10.894811 2.116492 5.271232 0.000000 0.000000 0.000000 6.025274 -2.653781 13.008118 -6.948129 0.582417 -26.758097 4.144734 20.113906 33.655810 13.762963 6.618141 -30.987708 0.000000 0.000000 0.000000 -12.299505 -20.226330 -34.165458 -49.284502 25.162889 -13.327574 -25.245504 -20.735598 -0.018467 0.000000 0.000000 0.000000 25.022147 -12.636499 27.777826 45.739563 49.882666 14.918668 -3.411631 26.374345 -1.032395 0.000000 0.000000 0.000000 
-0.457439 0.943093 0.676604 176.958850 66.313349 171.121230 -2.898141 -0.943957 -11.164681 0.003715 -1.611209 1.204169 -14.672208 -3.409515 19.005352 0.000000 0.000000 0.000000 3.481467 -3.223793 9.984369 -1.146476 -3.155637 5.100137 11.557267 3.967984 5.206591 0.000000 0.000000 0.000000 5.158402 -2.219973 12.458090 -7.078591 0.864111 -25.626705 3.935716 19.487706 33.031964 14.246447 6.984386 -31.602741 0.000000 0.000000 0.000000 -12.538709 -19.529286 -32.059119 -50.205715 22.692103 -12.813894 -24.295457 -21.041874 -0.103356 0.000000 0.000000 0.000000 26.102569 -11.423895 28.250325 45.483584 50.840143 14.110362 -2.380764 23.563952 -1.010141 0.000000 0.000000 0.000000 
-0.439877 0.939476 0.664149 177.200626 70.422920 171.929523 -2.915260 -0.983959 -11.306439 0.528296 -1.347680 3.170684 -15.033971 -2.537625 19.463553 0.000000 0.000000 0.000000 2.416151 -2.901742 8.963848 -1.225403 -3.990037 8.192183 13.391722 7.507676 4.285290 0.000000 0.000000 0.000000 4.776213 -1.712683 11.116516 -6.982020 1.078474 -25.401772 4.597441 20.094011 34.218341 13.847581 7.257990 -31.687530 0.000000 0.000000 0.000000 -12.729473 -20.228417 -30.191052 -50.286247 20.639457 -11.911133 -23.014627 -21.496192 -0.206687 0.000000 0.000000 0.000000 26.118306 -10.684000 27.646876 47.031499 49.413732 13.922048 -3.462338 24.084514 -1.165792 0.000000 0.000000 0.000000 
-0.424259 0.939982 0.652335 175.884276 74.039009 170.921557 -2.911276 -0.814434 -10.413957 0.123233 -1.426478 5.456698 -12.721575 -2.958717 16.566099 0.000000 0.000000 0.000000 1.757970 -2.396054 7.263001 -2.262312 -5.170253 12.565022 12.859037 8.670609 2.600386 0.000000 0.000000 0.000000 4.110496 -1.380680 10.407452 -6.975707 1.396213 -24.394363 3.329678 20.353095 32.712230 14.791525 7.010320 -31.940530 0.000000 0.000000 0.000000 -12.791111 -19.350780 -27.203404 -50.258714 16.219858 -10.381318 -22.670132 -21.519043 -0.141522 0.000000 0.000000 0.000000 27.491478 -10.375181 26.923353 46.422952 48.414584 12.005365 -2.099712 23.408609 -0.855345 0.000000 0.000000 0.000000 
-0.411829 0.941659 0.642138 175.378850 78.059920 170.532208 -1.893270 -0.635155 -9.005385 -1.732260 -1.557432 5.705773 -9.668671 -0.134988 15.726622 0.000000 0.000000 0.000000 0.693731 -1.947207 4.777421 -2.524459 -7.438698 17.745804 13.322427 11.725796 2.705039 0.000000 0.000000 0.000000 3.881332 -1.222480 9.952174 -6.630875 1.646068 -24.255244 1.882357 20.306409 32.255484 15.388082 7.093054 -33.685005 0.000000 0.000000 0.000000 -12.831074 -19.250239 -24.032421 -49.603065 12.210471 -8.711951 -21.751569 -21.814801 -0.081222 0.000000 0.000000 0.000000 27.800417 -9.048988 26.266952 46.798988 47.881336 11.509807 -2.531585 22.855628 -0.845919 0.000000 0.000000 0.000000 
-0.403441 0.945958 0.634967 175.209434 81.200816 169.588167 -1.332042 -0.433983 -6.945234 -2.829426 -1.612306 6.054708 -7.485682 1.179973 14.510148 0.000000 0.000000 0.000000 -0.739444 -1.892172 2.496974 -3.795576 -10.543692 24.330879 13.356676 14.081264 2.020982 0.000000 0.000000 0.000000 3.116597 -1.394176 11.244145 -6.708795 1.721756 -24.798594 1.597302 19.102282 32.756738 16.534090 6.855742 -35.047621 0.000000 0.000000 0.000000 -13.349153 -19.291720 -22.284158 -48.620477 8.029352 -6.281948 -20.679888 -22.326811 0.041242 0.000000 0.000000 0.000000 27.934128 -8.580420 24.746753 47.782576 47.364779 11.407586 -2.573031 23.619214 -0.665466 0.000000 0.000000 0.000000 
-0.399356 0.949489 0.631063 -174.285281 84.857183 179.891903 0.196478 -0.477501 -5.421065 -4.236559 -1.602044 5.010359 -3.849948 5.420251 15.450054 0.000000 0.000000 0.000000 -2.308728 -2.075994 0.808329 -3.807495 -11.998021 27.634896 8.391689 9.341034 2.425785 0.000000 0.000000 0.000000 3.152952 -1.491297 11.633619 -5.648055 2.047923 -24.161413 0.443065 18.539651 31.369905 15.834923 6.642734 -34.781745 0.000000 0.000000 0.000000 -12.912508 -20.861425 -18.757167 -48.542883 3.926930 -4.623600 -19.761247 -22.812843 -0.019954 0.000000 0.000000 0.000000 27.518010 -7.808683 22.983037 48.487991 46.058586 11.220683 -1.208510 24.724716 -0.159480 0.000000 0.000000 0.000000 
-0.399956 0.953081 0.630111 -149.562722 87.446017 -155.500960 0.964095 -0.531325 -4.108959 -5.374147 -1.654068 3.824792 -0.232649 8.581221 15.904113 0.000000 0.000000 0.000000 -3.658871 -2.361780 0.293060 -0.728995 -12.879542 27.056481 2.216841 -0.469769 1.195857 0.000000 0.000000 0.000000 2.611920 -1.447840 11.806598 -5.530863 2.244523 -23.344674 0.457403 16.398701 30.575984 15.392143 6.372735 -33.875467 0.000000 0.000000 0.000000 -13.129009 -21.756468 -16.513492 -48.073252 0.941512 -3.135784 -17.041725 -24.095935 -0.299693 0.000000 0.000000 0.000000 26.875651 -5.945009 22.080612 48.571798 44.656432 10.531229 -0.389143 26.335897 0.247155 0.000000 0.000000 0.000000 
-0.404835 0.953972 0.630753 -37.117301 87.765044 -42.564762 0.847286 -0.470815 -3.377327 -5.686895 -1.527257 2.664510 2.120140 10.371088 15.355582 0.000000 0.000000 0.000000 -4.815387 -2.490911 -0.351059 1.351097 -12.202208 25.680653 -3.460441 -10.625042 2.941989 0.000000 0.000000 0.000000 2.762491 -1.343550 11.359290 -6.398767 2.134708 -24.420902 0.917015 15.695609 31.694779 14.484495 6.624136 -34.623879 0.000000 0.000000 0.000000 -12.741067 -22.342106 -14.263206 -47.248084 -2.903294 -1.830674 -14.931230 -25.129590 -0.582191 0.000000 0.000000 0.000000 26.703603 -3.971802 22.216885 48.612817 44.853069 10.472673 -0.936277 26.349012 0.173002 0.000000 0.000000 0.000000 
-0.412796 0.952989 0.631879 -12.099893 82.891368 -16.941592 0.920023 -0.434208 -2.857954 -6.229306 -1.465530 0.639846 6.820046 14.571118 16.433538 0.000000 0.000000 0.000000 -6.190862 -2.622934 -0.613259 3.973122 -10.665654 22.595304 -8.541394 -17.991958 8.039605 0.000000 0.000000 0.000000 2.384534 -1.183261 10.939999 -5.397816 2.450284 -23.155396 -0.186693 16.569971 30.006200 15.606229 5.318700 -33.089835 0.000000 0.000000 0.000000 -12.460712 -24.247335 -11.034681 -46.387919 -5.954411 -0.818680 -12.464242 -25.158731 -0.809238 0.000000 0.000000 0.000000 27.792047 -2.643321 22.534869 46.241676 45.130010 8.986194 -0.619939 25.843346 0.221583 0.000000 0.000000 0.000000 
-0.423130 0.951158 0.633161 -5.365920 77.763499 -9.845486 0.570699 -0.353725 -3.043033 -6.488029 -1.266924 0.820539 8.821964 16.479355 15.774584 0.000000 0.000000 0.000000 -6.698686 -2.445084 -1.251978 5.290528 -9.685987 21.281564 -9.653645 -18.635855 10.310978 0.000000 0.000000 0.000000 2.624947 -1.316593 11.507543 -7.464727 2.501050 -23.461091 1.043102 16.976634 29.052525 15.867954 4.651325 -32.801079 0.000000 0.000000 0.000000 -12.259295 -24.037106 -9.158368 -46.139389 -8.571815 -0.234311 -10.832417 -25.557819 -0.937271 0.000000 0.000000 0.000000 27.810675 -1.215058 21.982671 46.443768 44.007540 8.428644 -0.644981 25.933768 0.322672 0.000000 0.000000 0.000000 
-0.435395 0.948386 0.634570 -2.785279 73.817728 -7.088369 0.099339 -0.279350 -2.944849 -6.589441 -1.117257 0.525176 10.295135 18.233957 16.062239 0.000000 0.000000 0.000000 -7.661149 -2.483936 -0.311851 5.829295 -7.914836 18.715943 -11.269588 -21.852189 11.225857 0.000000 0.000000 0.000000 1.736528 -1.488801 12.875689 -7.123077 2.471266 -24.433999 0.829554 16.932352 29.170005 16.844963 3.569745 -32.353282 0.000000 0.000000 0.000000 -12.730352 -23.913931 -8.036722 -45.354096 -9.225207 -0.020446 -10.143908 -26.475451 -0.898469 0.000000 0.000000 0.000000 29.299372 -0.276387 22.528068 45.159897 44.012222 7.088147 -2.654815 25.757878 -0.072151 0.000000 0.000000 0.000000 
-0.449131 0.946891 0.636295 -2.358523 68.383441 -6.574769 0.320882 -0.270063 -2.778987 -6.683727 -0.945337 -0.215465 12.673142 21.016718 17.606725 0.000000 0.000000 0.000000 -8.095980 -2.300881 -0.040287 6.252284 -6.773031 17.381580 -12.291547 -24.285382 11.456264 0.000000 0.000000 0.000000 1.964592 -1.541950 13.202064 -7.379416 2.500486 -24.969735 1.344404 17.586371 29.465409 17.503502 2.780540 -32.676223 0.000000 0.000000 0.000000 -13.202983 -23.595383 -7.130084 -44.528848 -9.035772 -0.021748 -10.427041 -27.708345 -0.725190 0.000000 0.000000 0.000000 29.011782 -0.008921 21.082533 45.888776 42.735263 6.958835 -2.043577 26.226611 0.222364 0.000000 0.000000 0.000000 
